# xmcd CD database file
#
# Track frame offsets:
#	150
#	12628
#	33744
#	63807
#	78308
#	116457
#	147027
#	179301
#	219149
#	251351
#	268233
#	292248
#
# Disc length: 4287 seconds
#
# Revision: 0
# Processed by: cddbd v1.5.2PL0 Copyright (c) Steve Scherf et al.
# Submitted via: CDex 1.51
#
DISCID=ac10bd0c
DTITLE=Ronnie Earl and The Broadcasters - Grateful Heart: Blues and Ballads
DYEAR=1996
DGENRE=Blues
TTITLE0=Alabama
TTITLE1=Ice Cream Man
TTITLE2=Drown In My Own Tears
TTITLE3=Still Soul Searching
TTITLE4=Skyman
TTITLE5=Welcome Home (Vietnam Veteran)
TTITLE6=For Abby 
TTITLE7=Isabella
TTITLE8=Little Flower
TTITLE9=Soundcheck
TTITLE10=Mr. B.K.
TTITLE11=Song For Sun
EXTD=YEAR: 1996
EXTT0=
EXTT1=
EXTT2=
EXTT3=
EXTT4=
EXTT5=
EXTT6=
EXTT7=
EXTT8=
EXTT9=
EXTT10=
EXTT11=
PLAYORDER=
